<mxfile host="app.diagrams.net" agent="Mozilla/5.0 (Windows NT 10.0; Win64; x64; rv:138.0) Gecko/20100101 Firefox/138.0" version="27.1.0">
  <diagram name="第 1 页" id="eZrQYWt4ec2B8TIaBhJo">
    <mxGraphModel dx="1489" dy="764" grid="1" gridSize="10" guides="1" tooltips="1" connect="1" arrows="1" fold="1" page="1" pageScale="1" pageWidth="1200" pageHeight="1920" math="0" shadow="0">
      <root>
        <mxCell id="0" />
        <mxCell id="1" parent="0" />
        <mxCell id="XBNxganhBLNyAf17kroM-89" style="edgeStyle=orthogonalEdgeStyle;rounded=0;orthogonalLoop=1;jettySize=auto;html=1;exitX=0.5;exitY=1;exitDx=0;exitDy=0;entryX=0.5;entryY=0;entryDx=0;entryDy=0;" edge="1" parent="1" source="XBNxganhBLNyAf17kroM-85" target="XBNxganhBLNyAf17kroM-86">
          <mxGeometry relative="1" as="geometry" />
        </mxCell>
        <mxCell id="XBNxganhBLNyAf17kroM-85" value="开始" style="rounded=1;whiteSpace=wrap;html=1;" vertex="1" parent="1">
          <mxGeometry x="514.5" y="120" width="90" height="40" as="geometry" />
        </mxCell>
        <mxCell id="XBNxganhBLNyAf17kroM-91" style="edgeStyle=orthogonalEdgeStyle;rounded=0;orthogonalLoop=1;jettySize=auto;html=1;exitX=0.5;exitY=1;exitDx=0;exitDy=0;entryX=0.5;entryY=0;entryDx=0;entryDy=0;" edge="1" parent="1" source="XBNxganhBLNyAf17kroM-86" target="XBNxganhBLNyAf17kroM-88">
          <mxGeometry relative="1" as="geometry" />
        </mxCell>
        <mxCell id="XBNxganhBLNyAf17kroM-94" style="edgeStyle=orthogonalEdgeStyle;rounded=0;orthogonalLoop=1;jettySize=auto;html=1;exitX=0.5;exitY=1;exitDx=0;exitDy=0;entryX=0.5;entryY=0;entryDx=0;entryDy=0;" edge="1" parent="1" source="XBNxganhBLNyAf17kroM-86" target="XBNxganhBLNyAf17kroM-87">
          <mxGeometry relative="1" as="geometry" />
        </mxCell>
        <mxCell id="XBNxganhBLNyAf17kroM-124" style="edgeStyle=orthogonalEdgeStyle;rounded=0;orthogonalLoop=1;jettySize=auto;html=1;exitX=0.5;exitY=1;exitDx=0;exitDy=0;entryX=0.5;entryY=0;entryDx=0;entryDy=0;" edge="1" parent="1" source="XBNxganhBLNyAf17kroM-86" target="XBNxganhBLNyAf17kroM-123">
          <mxGeometry relative="1" as="geometry" />
        </mxCell>
        <mxCell id="XBNxganhBLNyAf17kroM-86" value="选择登录方式" style="rounded=1;whiteSpace=wrap;html=1;" vertex="1" parent="1">
          <mxGeometry x="514.5" y="192" width="90" height="40" as="geometry" />
        </mxCell>
        <mxCell id="XBNxganhBLNyAf17kroM-93" style="edgeStyle=orthogonalEdgeStyle;rounded=0;orthogonalLoop=1;jettySize=auto;html=1;exitX=0.5;exitY=1;exitDx=0;exitDy=0;" edge="1" parent="1" source="XBNxganhBLNyAf17kroM-87" target="XBNxganhBLNyAf17kroM-92">
          <mxGeometry relative="1" as="geometry" />
        </mxCell>
        <mxCell id="XBNxganhBLNyAf17kroM-87" value="手机号+验证码登录" style="rounded=1;whiteSpace=wrap;html=1;" vertex="1" parent="1">
          <mxGeometry x="322.5" y="279" width="90" height="40" as="geometry" />
        </mxCell>
        <mxCell id="XBNxganhBLNyAf17kroM-98" style="edgeStyle=orthogonalEdgeStyle;rounded=0;orthogonalLoop=1;jettySize=auto;html=1;exitX=0.5;exitY=1;exitDx=0;exitDy=0;entryX=0.5;entryY=0;entryDx=0;entryDy=0;" edge="1" parent="1" source="XBNxganhBLNyAf17kroM-88" target="XBNxganhBLNyAf17kroM-96">
          <mxGeometry relative="1" as="geometry" />
        </mxCell>
        <mxCell id="XBNxganhBLNyAf17kroM-88" value="&amp;nbsp;手机号+密码登录" style="rounded=1;whiteSpace=wrap;html=1;" vertex="1" parent="1">
          <mxGeometry x="514.5" y="280" width="90" height="40" as="geometry" />
        </mxCell>
        <mxCell id="XBNxganhBLNyAf17kroM-97" style="edgeStyle=orthogonalEdgeStyle;rounded=0;orthogonalLoop=1;jettySize=auto;html=1;exitX=0.5;exitY=1;exitDx=0;exitDy=0;entryX=0.5;entryY=0;entryDx=0;entryDy=0;" edge="1" parent="1" source="XBNxganhBLNyAf17kroM-92" target="XBNxganhBLNyAf17kroM-95">
          <mxGeometry relative="1" as="geometry" />
        </mxCell>
        <mxCell id="XBNxganhBLNyAf17kroM-92" value="发送验证码" style="rounded=1;whiteSpace=wrap;html=1;" vertex="1" parent="1">
          <mxGeometry x="322.5" y="350" width="90" height="40" as="geometry" />
        </mxCell>
        <mxCell id="XBNxganhBLNyAf17kroM-101" style="edgeStyle=orthogonalEdgeStyle;rounded=0;orthogonalLoop=1;jettySize=auto;html=1;exitX=0;exitY=0.5;exitDx=0;exitDy=0;entryX=1;entryY=0.5;entryDx=0;entryDy=0;" edge="1" parent="1" source="XBNxganhBLNyAf17kroM-95" target="XBNxganhBLNyAf17kroM-100">
          <mxGeometry relative="1" as="geometry" />
        </mxCell>
        <mxCell id="XBNxganhBLNyAf17kroM-102" value="N" style="edgeLabel;html=1;align=center;verticalAlign=middle;resizable=0;points=[];" vertex="1" connectable="0" parent="XBNxganhBLNyAf17kroM-101">
          <mxGeometry x="-0.0708" y="2" relative="1" as="geometry">
            <mxPoint as="offset" />
          </mxGeometry>
        </mxCell>
        <mxCell id="XBNxganhBLNyAf17kroM-104" style="edgeStyle=orthogonalEdgeStyle;rounded=0;orthogonalLoop=1;jettySize=auto;html=1;exitX=0.5;exitY=1;exitDx=0;exitDy=0;entryX=0.5;entryY=0;entryDx=0;entryDy=0;" edge="1" parent="1" source="XBNxganhBLNyAf17kroM-95" target="XBNxganhBLNyAf17kroM-103">
          <mxGeometry relative="1" as="geometry" />
        </mxCell>
        <mxCell id="XBNxganhBLNyAf17kroM-110" value="Y" style="edgeLabel;html=1;align=center;verticalAlign=middle;resizable=0;points=[];" vertex="1" connectable="0" parent="XBNxganhBLNyAf17kroM-104">
          <mxGeometry x="-0.4446" y="2" relative="1" as="geometry">
            <mxPoint as="offset" />
          </mxGeometry>
        </mxCell>
        <mxCell id="XBNxganhBLNyAf17kroM-95" value="判断用户是否存在" style="rhombus;whiteSpace=wrap;html=1;" vertex="1" parent="1">
          <mxGeometry x="310" y="419" width="115" height="70" as="geometry" />
        </mxCell>
        <mxCell id="XBNxganhBLNyAf17kroM-114" style="edgeStyle=orthogonalEdgeStyle;rounded=0;orthogonalLoop=1;jettySize=auto;html=1;exitX=1;exitY=0.5;exitDx=0;exitDy=0;entryX=0;entryY=0.5;entryDx=0;entryDy=0;" edge="1" parent="1" source="XBNxganhBLNyAf17kroM-96" target="XBNxganhBLNyAf17kroM-113">
          <mxGeometry relative="1" as="geometry" />
        </mxCell>
        <mxCell id="XBNxganhBLNyAf17kroM-115" value="N" style="edgeLabel;html=1;align=center;verticalAlign=middle;resizable=0;points=[];" vertex="1" connectable="0" parent="XBNxganhBLNyAf17kroM-114">
          <mxGeometry x="-0.2775" y="1" relative="1" as="geometry">
            <mxPoint as="offset" />
          </mxGeometry>
        </mxCell>
        <mxCell id="XBNxganhBLNyAf17kroM-117" style="edgeStyle=orthogonalEdgeStyle;rounded=0;orthogonalLoop=1;jettySize=auto;html=1;exitX=0.5;exitY=1;exitDx=0;exitDy=0;entryX=0.5;entryY=0;entryDx=0;entryDy=0;" edge="1" parent="1" source="XBNxganhBLNyAf17kroM-96" target="XBNxganhBLNyAf17kroM-116">
          <mxGeometry relative="1" as="geometry" />
        </mxCell>
        <mxCell id="XBNxganhBLNyAf17kroM-121" value="Y" style="edgeLabel;html=1;align=center;verticalAlign=middle;resizable=0;points=[];" vertex="1" connectable="0" parent="XBNxganhBLNyAf17kroM-117">
          <mxGeometry x="-0.2899" y="-3" relative="1" as="geometry">
            <mxPoint as="offset" />
          </mxGeometry>
        </mxCell>
        <mxCell id="XBNxganhBLNyAf17kroM-96" value="判断用户是否存在" style="rhombus;whiteSpace=wrap;html=1;" vertex="1" parent="1">
          <mxGeometry x="502" y="369" width="115" height="70" as="geometry" />
        </mxCell>
        <mxCell id="XBNxganhBLNyAf17kroM-99" value="结束" style="rounded=1;whiteSpace=wrap;html=1;" vertex="1" parent="1">
          <mxGeometry x="450" y="750" width="90" height="40" as="geometry" />
        </mxCell>
        <mxCell id="XBNxganhBLNyAf17kroM-100" value="提示用户不存在" style="rounded=1;whiteSpace=wrap;html=1;" vertex="1" parent="1">
          <mxGeometry x="150" y="434" width="90" height="40" as="geometry" />
        </mxCell>
        <mxCell id="XBNxganhBLNyAf17kroM-106" style="edgeStyle=orthogonalEdgeStyle;rounded=0;orthogonalLoop=1;jettySize=auto;html=1;exitX=0;exitY=0.5;exitDx=0;exitDy=0;" edge="1" parent="1" source="XBNxganhBLNyAf17kroM-103" target="XBNxganhBLNyAf17kroM-105">
          <mxGeometry relative="1" as="geometry" />
        </mxCell>
        <mxCell id="XBNxganhBLNyAf17kroM-111" value="N" style="edgeLabel;html=1;align=center;verticalAlign=middle;resizable=0;points=[];" vertex="1" connectable="0" parent="XBNxganhBLNyAf17kroM-106">
          <mxGeometry x="-0.1702" relative="1" as="geometry">
            <mxPoint as="offset" />
          </mxGeometry>
        </mxCell>
        <mxCell id="XBNxganhBLNyAf17kroM-108" style="edgeStyle=orthogonalEdgeStyle;rounded=0;orthogonalLoop=1;jettySize=auto;html=1;exitX=0.5;exitY=1;exitDx=0;exitDy=0;entryX=0;entryY=0.5;entryDx=0;entryDy=0;" edge="1" parent="1" source="XBNxganhBLNyAf17kroM-103" target="XBNxganhBLNyAf17kroM-107">
          <mxGeometry relative="1" as="geometry" />
        </mxCell>
        <mxCell id="XBNxganhBLNyAf17kroM-112" value="Y" style="edgeLabel;html=1;align=center;verticalAlign=middle;resizable=0;points=[];" vertex="1" connectable="0" parent="XBNxganhBLNyAf17kroM-108">
          <mxGeometry x="-0.7031" relative="1" as="geometry">
            <mxPoint as="offset" />
          </mxGeometry>
        </mxCell>
        <mxCell id="XBNxganhBLNyAf17kroM-103" value="&lt;div&gt;判断验证码是&lt;/div&gt;&lt;div&gt;否正确&lt;/div&gt;" style="rhombus;whiteSpace=wrap;html=1;" vertex="1" parent="1">
          <mxGeometry x="310" y="533" width="115" height="70" as="geometry" />
        </mxCell>
        <mxCell id="XBNxganhBLNyAf17kroM-105" value="提示用户验证码不正确" style="rounded=1;whiteSpace=wrap;html=1;" vertex="1" parent="1">
          <mxGeometry x="150" y="547" width="90" height="40" as="geometry" />
        </mxCell>
        <mxCell id="XBNxganhBLNyAf17kroM-109" style="edgeStyle=orthogonalEdgeStyle;rounded=0;orthogonalLoop=1;jettySize=auto;html=1;exitX=0.5;exitY=1;exitDx=0;exitDy=0;" edge="1" parent="1" source="XBNxganhBLNyAf17kroM-107" target="XBNxganhBLNyAf17kroM-99">
          <mxGeometry relative="1" as="geometry" />
        </mxCell>
        <mxCell id="XBNxganhBLNyAf17kroM-107" value="登陆成功，跳转首页" style="rounded=1;whiteSpace=wrap;html=1;" vertex="1" parent="1">
          <mxGeometry x="450" y="650" width="90" height="40" as="geometry" />
        </mxCell>
        <mxCell id="XBNxganhBLNyAf17kroM-113" value="提示用户不存在" style="rounded=1;whiteSpace=wrap;html=1;" vertex="1" parent="1">
          <mxGeometry x="660" y="384" width="90" height="40" as="geometry" />
        </mxCell>
        <mxCell id="XBNxganhBLNyAf17kroM-119" style="edgeStyle=orthogonalEdgeStyle;rounded=0;orthogonalLoop=1;jettySize=auto;html=1;exitX=1;exitY=0.5;exitDx=0;exitDy=0;entryX=0;entryY=0.5;entryDx=0;entryDy=0;" edge="1" parent="1" source="XBNxganhBLNyAf17kroM-116" target="XBNxganhBLNyAf17kroM-118">
          <mxGeometry relative="1" as="geometry" />
        </mxCell>
        <mxCell id="XBNxganhBLNyAf17kroM-120" value="N" style="edgeLabel;html=1;align=center;verticalAlign=middle;resizable=0;points=[];" vertex="1" connectable="0" parent="XBNxganhBLNyAf17kroM-119">
          <mxGeometry x="-0.1826" y="1" relative="1" as="geometry">
            <mxPoint as="offset" />
          </mxGeometry>
        </mxCell>
        <mxCell id="XBNxganhBLNyAf17kroM-122" style="edgeStyle=orthogonalEdgeStyle;rounded=0;orthogonalLoop=1;jettySize=auto;html=1;exitX=0.5;exitY=1;exitDx=0;exitDy=0;entryX=1;entryY=0.5;entryDx=0;entryDy=0;" edge="1" parent="1" source="XBNxganhBLNyAf17kroM-116" target="XBNxganhBLNyAf17kroM-107">
          <mxGeometry relative="1" as="geometry" />
        </mxCell>
        <mxCell id="XBNxganhBLNyAf17kroM-116" value="&lt;div&gt;判断密码是&lt;/div&gt;&lt;div&gt;否正确&lt;/div&gt;" style="rhombus;whiteSpace=wrap;html=1;" vertex="1" parent="1">
          <mxGeometry x="502" y="503" width="115" height="70" as="geometry" />
        </mxCell>
        <mxCell id="XBNxganhBLNyAf17kroM-118" value="提示密码不正确" style="rounded=1;whiteSpace=wrap;html=1;" vertex="1" parent="1">
          <mxGeometry x="660" y="518" width="90" height="40" as="geometry" />
        </mxCell>
        <mxCell id="XBNxganhBLNyAf17kroM-127" style="edgeStyle=orthogonalEdgeStyle;rounded=0;orthogonalLoop=1;jettySize=auto;html=1;exitX=0.5;exitY=1;exitDx=0;exitDy=0;" edge="1" parent="1" source="XBNxganhBLNyAf17kroM-123" target="XBNxganhBLNyAf17kroM-125">
          <mxGeometry relative="1" as="geometry" />
        </mxCell>
        <mxCell id="XBNxganhBLNyAf17kroM-123" value="扫码登录" style="rounded=1;whiteSpace=wrap;html=1;" vertex="1" parent="1">
          <mxGeometry x="802.5" y="280" width="90" height="40" as="geometry" />
        </mxCell>
        <mxCell id="XBNxganhBLNyAf17kroM-132" style="edgeStyle=orthogonalEdgeStyle;rounded=0;orthogonalLoop=1;jettySize=auto;html=1;exitX=0.5;exitY=1;exitDx=0;exitDy=0;entryX=0.5;entryY=0;entryDx=0;entryDy=0;" edge="1" parent="1" source="XBNxganhBLNyAf17kroM-125" target="XBNxganhBLNyAf17kroM-131">
          <mxGeometry relative="1" as="geometry" />
        </mxCell>
        <mxCell id="XBNxganhBLNyAf17kroM-133" value="N" style="edgeLabel;html=1;align=center;verticalAlign=middle;resizable=0;points=[];" vertex="1" connectable="0" parent="XBNxganhBLNyAf17kroM-132">
          <mxGeometry x="-0.1771" y="-1" relative="1" as="geometry">
            <mxPoint as="offset" />
          </mxGeometry>
        </mxCell>
        <mxCell id="XBNxganhBLNyAf17kroM-143" style="edgeStyle=orthogonalEdgeStyle;rounded=0;orthogonalLoop=1;jettySize=auto;html=1;exitX=1;exitY=0.5;exitDx=0;exitDy=0;entryX=1;entryY=0.5;entryDx=0;entryDy=0;" edge="1" parent="1" source="XBNxganhBLNyAf17kroM-125" target="XBNxganhBLNyAf17kroM-139">
          <mxGeometry relative="1" as="geometry" />
        </mxCell>
        <mxCell id="XBNxganhBLNyAf17kroM-145" value="Y" style="edgeLabel;html=1;align=center;verticalAlign=middle;resizable=0;points=[];" vertex="1" connectable="0" parent="XBNxganhBLNyAf17kroM-143">
          <mxGeometry x="-0.3985" y="-1" relative="1" as="geometry">
            <mxPoint as="offset" />
          </mxGeometry>
        </mxCell>
        <mxCell id="XBNxganhBLNyAf17kroM-125" value="&lt;div&gt;判断该用户&lt;/div&gt;&lt;div&gt;是否注册&lt;/div&gt;" style="rhombus;whiteSpace=wrap;html=1;" vertex="1" parent="1">
          <mxGeometry x="790" y="350" width="115" height="70" as="geometry" />
        </mxCell>
        <mxCell id="XBNxganhBLNyAf17kroM-135" style="edgeStyle=orthogonalEdgeStyle;rounded=0;orthogonalLoop=1;jettySize=auto;html=1;exitX=0.5;exitY=1;exitDx=0;exitDy=0;entryX=0.5;entryY=0;entryDx=0;entryDy=0;" edge="1" parent="1" source="XBNxganhBLNyAf17kroM-131" target="XBNxganhBLNyAf17kroM-134">
          <mxGeometry relative="1" as="geometry" />
        </mxCell>
        <mxCell id="XBNxganhBLNyAf17kroM-131" value="提示用户不存在" style="rounded=1;whiteSpace=wrap;html=1;" vertex="1" parent="1">
          <mxGeometry x="802.5" y="463" width="90" height="40" as="geometry" />
        </mxCell>
        <mxCell id="XBNxganhBLNyAf17kroM-140" style="edgeStyle=orthogonalEdgeStyle;rounded=0;orthogonalLoop=1;jettySize=auto;html=1;exitX=0.5;exitY=1;exitDx=0;exitDy=0;entryX=0.5;entryY=0;entryDx=0;entryDy=0;" edge="1" parent="1" source="XBNxganhBLNyAf17kroM-134" target="XBNxganhBLNyAf17kroM-139">
          <mxGeometry relative="1" as="geometry" />
        </mxCell>
        <mxCell id="XBNxganhBLNyAf17kroM-134" value="自动进行用户注册" style="rounded=1;whiteSpace=wrap;html=1;" vertex="1" parent="1">
          <mxGeometry x="802.5" y="546" width="90" height="40" as="geometry" />
        </mxCell>
        <mxCell id="XBNxganhBLNyAf17kroM-142" style="edgeStyle=orthogonalEdgeStyle;rounded=0;orthogonalLoop=1;jettySize=auto;html=1;exitX=0;exitY=0.5;exitDx=0;exitDy=0;entryX=1;entryY=0.5;entryDx=0;entryDy=0;" edge="1" parent="1" source="XBNxganhBLNyAf17kroM-139" target="XBNxganhBLNyAf17kroM-107">
          <mxGeometry relative="1" as="geometry" />
        </mxCell>
        <mxCell id="XBNxganhBLNyAf17kroM-139" value="进行第三方登录" style="rounded=1;whiteSpace=wrap;html=1;" vertex="1" parent="1">
          <mxGeometry x="802.5" y="650" width="90" height="40" as="geometry" />
        </mxCell>
      </root>
    </mxGraphModel>
  </diagram>
</mxfile>
